<?xml version="1.0" encoding="UTF-8"?>
<svg version="1.1" viewBox="0 0 2048 1092" width="960" height="512" xmlns="http://www.w3.org/2000/svg">
<path transform="translate(378,450)" d="m0 0h46l26 2 12 3 16 8 9 7 9 10 6 12 4 14v17l-4 15-5 10-10 13-12 9 11 9 9 13 5 10 2 9v21l-2 10-4 9-7 12-11 12-14 9-16 7-18 4-22 1h-43l-20-1-7-4-6-8-1-4 1-17 10-72 10-80 4-37 3-10 8-9zm24 43-3 15-5 44 4 1h29l11-2 9-6 6-7 4-11v-12l-4-11-8-7-7-3-5-1zm-11 100-2 2-2 13-4 29-1 13 1 2 3 1h37l12-3 9-6 6-7 4-10 1-4v-9l-4-11-8-7-10-3z" fill="#F9FBFC"/>
<path transform="translate(56,450)" d="m0 0h91l9 1 6 4 4 9v13l-4 8-7 6-6 2-12 1-55 1-1 12-3 22-2 20 3 1 54 1 5 3 6 12v10l-5 10-7 6-8 3h-54l-7 56h62l9 1 8 5 4 6 1 4v8l-3 9-6 7-9 4-8 1h-62l-31-1-7-3-5-4-4-8v-11l4-35 4-29 12-100 5-36 4-9 8-7z" fill="#FAFBFC"/>
<path transform="translate(1203,450)" d="m0 0h43l16 1 16 4 15 8 10 8 7 7 8 13 5 13 3 17v8l-3 14-6 16-8 14-9 10-12 10-10 6-15 5-21 3-29 1-4 34-4 33-4 10-7 8-9 4h-13l-6-3-7-8-2-4v-14l5-42 5-43 8-61 6-48 2-9 5-8 5-4 4-2zm24 43-2 7-6 49v15h19l15-2 10-5 8-8 5-11 2-7v-12l-4-11-4-6-9-6-7-2-14-1z" fill="#F9FBFC"/>
<path transform="translate(787,512)" d="m0 0h23l15 3 16 8 10 8 9 10 7 12 5 15 3 17-1 16-4 13-5 6-6 3-107 1 1 9 5 10 8 7 14 7 7 2h19l15-4 15-8 8-2 8 4 5 10 1 10-3 8-5 5-9 6-14 6-15 4-6 1h-29l-14-3-13-5-10-6-11-9-8-9-8-13-6-15-2-10-1-10v-16l4-21 9-21 12-17 11-11 16-11 15-7zm4 38-9 2-12 7-7 7-7 11-3 8v4l45 1h30l2-2v-11l-4-10-7-9-9-6-9-2z" fill="#FAFBFC"/>
<path transform="translate(1511,512)" d="m0 0h22l12 2 12 5 12 7 8 7 9 12 8 15 4 14 1 9v16l-3 10-6 10-6 3-5 1-104 1 1 9 4 8 4 5 10 7 8 4 8 2h21l16-5 16-8 9 1 5 4 5 10v9l-4 8-8 7-16 8-13 4-11 2h-30l-19-5-14-7-12-9-10-11-9-14-5-13-3-14-1-14 2-17 5-20 9-17 12-16 8-8 14-10 16-8 11-3zm1 38-11 4-10 8-9 10-6 12v6h75l3-2v-9l-4-11-6-9-8-6-9-3z" fill="#F9FBFC"/>
<path transform="translate(1936,512)" d="m0 0h26l14 3 14 6 13 9 10 10 7 10 8 14 4 15 2 17v8l-4 21-6 16-8 14-11 14-7 7-13 9-15 8-11 4-11 2h-29l-15-4-16-8-12-9-8-8-9-13-6-14-3-13-1-12v-14l3-16 8-20 7-13 8-10 12-12 15-10 16-7 10-3zm2 42-12 4-11 7-8 8-8 13-4 10-1 4v22l4 11 7 9 5 5 9 6 7 3 6 1h12l11-4 10-6 10-10 8-13 4-12 1-6v-12l-3-12-5-10-8-9-10-6-10-3z" fill="#F9FBFC"/>
<path transform="translate(985,512)" d="m0 0h21l12 3 11 6 11 10 7 12 4 12 1 5v29l-5 38-4 35-3 16-4 9-8 8-10 3-10-1-6-4-6-8-1-3v-13l10-74 1-9v-10l-3-9-6-8-10-5h-16l-10 4-11 8-6 9-4 16-4 26-4 35-4 25-4 10-5 6-8 4-4 1h-9l-8-4-6-8-1-3v-15l6-43 5-42 5-43 2-12 4-8 7-5 7-2 10 1 7 4 4 5 6 11 5-5 12-9 12-6z" fill="#FBFBFC"/>
<path transform="translate(553,513)" d="m0 0h12l6 3 6 8 2 5v16l-4 30-4 38-1 7v19l5 10 9 6 6 2h16l10-4 9-7 6-8 4-10 5-37 5-47 2-14 6-10 7-5 6-2h10l7 3 7 8 2 6-1 15-4 35-3 28-5 40-4 31-5 10-4 5-10 4h-8l-6-2-5-5-5-7-3-3v-2l-8 7-11 8-10 4-5 1h-27l-10-3-11-6-11-10-6-9-6-17-1-5v-25l3-22 4-30 2-23 3-20 3-6 8-7z" fill="#F9FAFC"/>
<path transform="translate(753,102)" d="m0 0h15l10 2 12 6 10 9 9 11 11 18 9 21 5 15 3 16v13l-4 18-5 9-9 10-8 6-13 4h-23l-13-4-16-7-18-10-12-9-10-9-10-10-6-10-5-12-1-4v-16l4-12 7-12 14-15 10-10 13-10 12-6z" fill="#F9B910"/>
<path transform="translate(1301,102)" d="m0 0h8l10 2 16 8 11 8 10 9 10 10 9 13 4 8 2 9v16l-3 12-6 11-11 12-7 7-14 10-16 9-22 11-13 3-16 1-11-2-10-5-9-7-8-10-6-14-1-4v-18l5-21 6-17 10-21 12-18 8-9 10-7 10-4z" fill="#FAB90E"/>
<path transform="translate(776,829)" d="m0 0h24l10 3 9 6 5 4 7 10 5 12 1 6v14l-5 25-7 19-12 23-10 13-11 11-10 6-10 3-6 1h-13l-12-3-13-8-11-9-10-9-11-12-7-11-5-13v-23l6-15 12-14 11-10 15-10 21-11 18-6z" fill="#FAB90E"/>
<path transform="translate(1267,829)" d="m0 0h23l17 4 20 9 18 11 10 8 10 9 8 9 7 13 2 9v14l-5 16-4 8-7 9-9 10-9 9-15 11-10 5-8 2h-17l-13-4-10-6-13-13-9-13-9-16-7-15-7-23-2-9v-16l3-10 7-13 7-7 10-7z" fill="#F9B910"/>
<path transform="translate(1021,18)" d="m0 0h25l16 3 13 5 10 7 9 10 6 13 2 9v16l-5 22-9 27-8 16-6 10-9 10-11 8-10 4-4 1h-13l-12-3-11-7-9-8-9-13-8-16-6-14-9-37v-16l5-15 6-10 4-5 13-9 12-5z" fill="#F9B910"/>
<path transform="translate(1028,917)" d="m0 0h11l10 3 14 9 5 4 10 13 8 15 8 20 6 21 2 11v17l-4 13-6 11-7 8-10 6-11 4-13 3-8 1h-20l-19-3-13-5-11-8-7-7-7-15-2-10v-11l6-29 6-18 8-16 9-15 10-11 14-8z" fill="#FAB90E"/>
<path transform="translate(1695,512)" d="m0 0h23l17 3 12 5 10 6 7 6 5 9v10l-5 10-7 6-5 2h-10l-20-11-12-3h-10l-13 4-11 6-6 5-7 11-5 11-3 14v12l3 11 4 8 9 10 13 6 9 2h17l12-4 12-6 10-1 6 3 6 7 2 5v12l-5 9-11 8-11 5-16 5-7 1h-28l-16-4-16-8-10-7-10-9-9-13-5-11-4-13-1-6v-21l2-16 6-18 10-19 11-13 10-9 15-10 11-5 14-4z" fill="#FAFBFC"/>
<path transform="translate(208,443)" d="m0 0h10l9 4 7 8 1 2v14l-8 63-7 61-9 75-3 13-6 8-10 6-3 1h-11l-6-4-7-8-2-5v-10l4-25 10-82 6-48 6-49 3-12 4-6 8-5z" fill="#F8FAFC"/>
<path transform="translate(1415,512)" d="m0 0h13l6 3 3 3 2 9-1 13-3 10-6 7-6 2-13 1-11 4-11 7-7 9-5 11-4 16-5 40-4 31-4 9-5 6-7 4-4 1h-10l-8-4-6-9-1-3v-11l10-79 8-58 3-11 4-5 8-4 10-1 7 2 5 5 5 10 1 7 5-5 6-7 13-9z" fill="#F8FAFC"/>
<path transform="translate(593,334)" d="m0 0h21l17 4 13 6 11 6 11 9 9 10 4 11-1 12-4 10-9 10-9 6-18 6-19 3h-19l-10-2-10-5-5-4-6-10-3-11v-23l4-15 5-10 7-8 8-4z" fill="#FAB90D"/>
<path transform="translate(1455,334)" d="m0 0h15l11 4 8 6 7 14 4 16v17l-4 15-6 11-8 6-8 3-5 1h-19l-21-3-16-5-10-5-7-6-8-14-1-4v-9l3-9 7-9 7-7 15-10 19-8z" fill="#F7B912"/>
<path transform="translate(907,235)" d="m0 0h15l9 5 8 8 8 15 7 21 1 4v14l-6 12-9 10-7 7-16 10-10 4h-13l-16-8-12-11-7-8-3-8v-7l4-14 9-19 10-14 12-13 10-6z" fill="#FAB90E"/>
<path transform="translate(1812,513)" d="m0 0h8l8 3 5 5 4 7v13l-6 44-6 52-5 39-4 11-6 7-11 4-11-1-6-3-4-5-3-10 1-17 5-43 10-77 4-16 4-6 9-6z" fill="#F7F9FB"/>
<path transform="translate(1146,235)" d="m0 0h13l7 3 11 8 9 9 11 15 8 16 4 13v11l-4 10-7 9-9 7-15 8-3 1h-13l-12-5-13-9-9-8-8-10-4-8-1-3v-10l6-21 6-15 7-11 8-7z" fill="#FAB90E"/>
<path transform="translate(1816,443)" d="m0 0h13l8 3 7 6 4 8 1 3v12l-4 10-7 8-10 5-3 1h-12l-10-5-6-8-3-7v-11l3-10 4-6 7-6z" fill="#F6F8FB"/>
<path transform="translate(66,610)" d="m0 0h1v10l-4 31h62l9 1 8 5 4 6 1 4v8l-3 9-6 7-4 1 6-7 3-6 1-12-3-7-4-4-3-1-70-1-3-1 2-19z" fill="#7BB1E1"/>
<path transform="translate(56,450)" d="m0 0h91l9 1 6 4 1 4-5-4-3-1h-102l-6 3-6 5 2-4 6-5z" fill="#7CB1E1"/>
<path transform="translate(378,450)" d="m0 0h46l26 2 12 3 16 8 4 4-5-2-10-5-13-4-11-2h-69l-8 4-6 9-3 16-1 8h-1v-9l2-13 4-9 8-7z" fill="#7BB1E1"/>
<path transform="translate(1225,492)" d="m0 0h26l11 3 6 4h-3l-11-4-27-2-7 56-1 15 29-2 10-3 6-4 6-5-2 4-8 7-10 4-5 1h-28v-13l6-53 1-7z" fill="#7BB1E1"/>
<path transform="translate(222,560)" d="m0 0h1v10l-7 58-6 48-3 8-4 6-9 6-5 2h-11l-6-4-1-2 6 2 2 1h11l8-4 5-5 3-6 6-42z" fill="#7BB1E1"/>
<path transform="translate(1668,570)" d="m0 0v3l-6 10-5 12-2 11v12l3 11 4 8 9 10 13 6 9 2h17l12-4 12-6 4 1-21 10-9 2h-14l-13-3-10-5-11-11-6-12-2-11 1-16 4-13 6-11z" fill="#7BB1E1"/>
<path transform="translate(768,559)" d="m0 0 2 1-9 10-6 12-2 7h75l1-1v-15l2 3 1 11-1 4-2 1h-77l-1-4 4-12 6-10z" fill="#7BB1E1"/>
<path transform="translate(80,493)" d="m0 0h57v1l-55 1-1 12-3 22-2 20 3 1 54 1 5 3 2 5-7-5-4-1-56-1 2-22 4-33z" fill="#7BB1E1"/>
<path transform="translate(895,577)" d="m0 0h1l-1 16-9 76v16l6 7 6 3h11l10-5 3-2-2 4-6 4-7 2h-9l-8-4-6-8-1-3v-15l6-43 5-42z" fill="#7BB1E1"/>
<path transform="translate(666,513)" d="m0 0h10l7 3 7 8 2 6-1 15-4 35-3 28-3 22h-1v-10l9-81v-11l-3-6-5-4-5-2h-10l-10 5-6 7-1-2 4-6 7-5z" fill="#7BB1E1"/>
<path transform="translate(1203,450)" d="m0 0h43l16 1 16 4 15 8 1 2-6-2-13-6-12-3-59-1-9 2-9 6 2-4 5-4 4-2z" fill="#7BB1E1"/>
<path transform="translate(1739,644)" d="m0 0 7 1 5 3 6 8 1 3v12l-5 9-11 8-11 5-16 5-7 1h-28l-16-4-7-3 3-1 18 5 7 1h15l19-3 18-6 11-7 6-7 2-6-1-9-4-7-6-5-6-2z" fill="#7BB1E1"/>
<path transform="translate(2018,648)" d="m0 0 1 2-7 10-8 10-10 9-14 9-15 7-11 3-6 1h-29l-15-4-14-7 2-1 14 6 12 3 7 1h16l14-2 18-6 16-9 13-12 8-9z" fill="#7BB1E1"/>
<path transform="translate(1379,580)" d="m0 0 1 2-5 12-3 13-5 40-4 31-4 9-5 6-7 4-4 1h-10l-8-4v-3l7 4h12l7-3 5-4 4-8 5-38 4-32 4-18z" fill="#7BB1E1"/>
<path transform="translate(1042,536)" d="m0 0 3 3 5 12 2 9v29l-5 38-4 35-3 16-2 3 2-19 10-78v-23l-5-17-3-6z" fill="#7BB1E1"/>
<path transform="translate(492,589)" d="m0 0 3 3 5 10 2 9v21l-2 10-4 9-7 12-11 12-14 9-4 1 3-3 11-7 10-9 8-14 5-13 2-12v-15l-3-12-4-9z" fill="#7BB1E1"/>
<path transform="translate(1936,512)" d="m0 0h26l14 3 14 6 9 6-2 1-16-8-14-4-7-1h-23l-15 3-16 6-12 7-2-1 10-7 16-7 10-3z" fill="#7BB1E1"/>
<path transform="translate(573,578)" d="m0 0h1l-1 19-3 23v19l5 10 9 6 6 2h16l10-4 9-7 2-1-2 4-8 6-9 4-4 1h-13l-9-3-6-4-6-8-3-8v-16z" fill="#7BB1E1"/>
<path transform="translate(1695,512)" d="m0 0h23l17 3 12 5 10 6-2 1-15-7-16-4-8-1h-20l-15 3-16 6-6 3-2-1 10-6 16-6z" fill="#7BB1E1"/>
<path transform="translate(787,512)" d="m0 0h23l15 3 16 8 5 5-5-2-12-6-14-4-7-1h-21l-15 3-16 7-8 5-2-1 10-7 15-7z" fill="#7BB1E1"/>
<path transform="translate(593,334)" d="m0 0h21l17 4 13 6 11 6 11 9 9 10 4 11-1 12-4 10-2 1 3-9 1-5v-11l-3-8-9-10-13-9-17-9-16-5-5-1h-19l-10 3 3-3z" fill="#7BB1E1"/>
<path transform="translate(751,630)" d="m0 0 2 3 5 10 8 7 14 7 7 2h19l15-4 15-8 8-2 8 4 3 5-1 2-6-7-6-1-22 10-10 3h-25l-13-4-9-6-7-7-5-10z" fill="#7BB1E1"/>
<path transform="translate(1511,512)" d="m0 0h22l12 2 12 5 12 7 2 3-5-2-16-8-16-4h-23l-14 3-12 5-10 5-2-1 10-6 10-5 11-3z" fill="#7BB1E1"/>
<path transform="translate(1e3 595)" d="m0 0h1l-1 17-5 40-2 14v18l5 7 7 4h11l9-3-2 3-10 3-10-1-6-4-6-8-1-3v-13z" fill="#7BB1E1"/>
<path transform="translate(854,675)" d="m0 0v3l-5 5-10 6-15 6-18 4h-29l-14-3-13-5-5-3 2-1 15 6 20 4h14l21-3 17-5 13-7z" fill="#7BB1E1"/>
<path transform="translate(1483,621)" d="m0 0h101v1l-5 1-104 1-1 5-2-2v-5z" fill="#7BB1E1"/>
<path transform="translate(141,561)" d="m0 0 2 2 1 3v10l-5 10-7 6-8 3h-54l-1 7h-1v-8l1-1 56-1 7-3 7-7 2-6z" fill="#7BB1E1"/>
<path transform="translate(1146,235)" d="m0 0h13l7 3 11 8 9 9 11 15 8 16 4 13v11h-1l-3-16-5-13-9-16-11-13-12-10-8-4-4-1h-8l-11 4-7 7v-3l8-7z" fill="#7BB1E1"/>
<path transform="translate(482,467)" d="m0 0 4 2 7 7 8 13 5 17v17l-4 15-5 10-10 13h-3l8-10 8-16 3-12v-17l-3-11-4-10-7-10-7-7z" fill="#7BB1E1"/>
<path transform="translate(1475,585)" d="m0 0h1v5l23-1h52l4-3-1 5-3 1h-76l-1-4z" fill="#7BB1E1"/>
<path transform="translate(1212,606)" d="m0 0h29v1l-28 1-4 34-4 33-4 10-7 8-2-1 7-8 3-10 6-45 3-22z" fill="#7BB1E1"/>
<path transform="translate(907,235)" d="m0 0h15l9 5 8 8 8 15 7 21 1 4v14h-1l-2-16-5-16-7-16-8-10-10-6-3-1h-10l-11 4-9 7-6 5 2-4 10-9 8-4z" fill="#7BB1E1"/>
<path transform="translate(388,591)" d="m0 0h43l7 2v1h-47l-2 5-4 33-1 5h-1v-9l4-34z" fill="#7BB1E1"/>
<path transform="translate(1812,513)" d="m0 0h8l8 3 5 5 4 7v13l-6 44h-1l1-18 3-26v-13l-4-7-10-5h-8l-9 4-6 4 2-4 9-6z" fill="#7BB1E1"/>
<path transform="translate(985,512)" d="m0 0h21l12 3 11 6 11 10-1 2-7-7-14-8-12-3h-21l-12 3-10 5-6 4-2-1 11-8 13-5z" fill="#7BB1E1"/>
<path transform="translate(208,443)" d="m0 0h10l9 4 7 8 1 2v14l-6 46h-1v-10l4-33v-17l-4-6-6-4-3-1h-12l-10 5-3 2 2-4 8-5z" fill="#7BB1E1"/>
<path transform="translate(761,621)" d="m0 0h101l-3 2-107 1-1 6h-1l-1-7 1-1z" fill="#7BB1E1"/>
<path transform="translate(1479,641)" d="m0 0 7 6 8 6 8 4 8 2h21l16-5 16-8h6l-3 2-22 10-11 3-16 1-13-2-12-5-9-7-4-5z" fill="#7BB1E1"/>
<path transform="translate(1586,547)" d="m0 0 3 3 6 13 3 11 1 9v16l-3 10-6 10-5 2 6-8 4-10 1-8v-12l-3-17-6-15z" fill="#7BB1E1"/>
<path transform="translate(1897,631)" d="m0 0 4 5 7 9 11 7 7 3 6 1h12l11-4 10-6 9-9v3l-8 8-10 6-11 4h-17l-10-3-11-8-8-9-2-4z" fill="#7BB1E1"/>
<path transform="translate(397,515)" d="m0 0h1v10l-3 27h32l11-1-2 2-11 2h-30l-2-1 1-14z" fill="#7BB1E1"/>
<path transform="translate(1700,553)" d="m0 0h13l13 4 15 8 3 1h8l8-4 4-3-2 4-5 4-5 2h-10l-20-11-12-3-10-1z" fill="#7BB1E1"/>
<path transform="translate(964,554)" d="m0 0 3 1-11 6-7 6-5 8-4 16-4 26h-1v-9l3-23 4-12 7-9 11-8z" fill="#7BB1E1"/>
<path transform="translate(1937,553)" d="m0 0h16l4 2h-19l-12 4-11 7-7 7-8 13-3 7-1-4 6-12 9-10 8-7 10-5z" fill="#7BB1E1"/>
<path transform="translate(1310,103)" d="m0 0 9 1 16 8 11 8 10 9 10 10 6 8-1 2-11-13-10-10-10-8-13-8-12-5-5-1z" fill="#7BB1E1"/>
<path transform="translate(545,687)" d="m0 0 5 2 11 5 13 3h17l13-3 4-2 3 1-8 4-8 2h-27l-10-3-11-6z" fill="#7BB1E1"/>
<path transform="translate(1355,513)" d="m0 0 11 1 6 4 6 12 2 8-3 2-2-12-5-8-5-3-9-1-9 3-6 3 2-4 8-4z" fill="#7BB1E1"/>
<path transform="translate(1816,443)" d="m0 0h13l8 3 7 6 3 5-1 3-4-6-7-6-9-3h-8l-12 5-7 6 2-4 7-6z" fill="#7BB1E1"/>
<path transform="translate(553,513)" d="m0 0h12l6 3 3 3-1 2-6-4-3-1h-11l-8 4-5 5-4 8-1-4 3-6 8-7z" fill="#7BB1E1"/>
<path transform="translate(1415,512)" d="m0 0h13l6 3 3 3-1 3-4-4-6-2h-11l-12 4-8 5-2-1 10-7z" fill="#7BB1E1"/>
<path transform="translate(381,647)" d="m0 0 2 3v2h40l16-4-4 4-7 2h-48z" fill="#7BB1E1"/>
<path transform="translate(791,829)" d="m0 0h9l10 3 9 6 5 4 7 10 3 6-1 3-7-13-9-9-14-7-12-2z" fill="#7BB1E1"/>
<path transform="translate(919,513)" d="m0 0 10 1 7 4 3 3-1 2-8-6-4-1h-8l-10 5-4 5-2 2 1-5 5-5 4-3z" fill="#7BB1E1"/>
<path transform="translate(870,565)" d="m0 0 2 3 3 17-1 16-2 8h-1l1-21z" fill="#7BB1E1"/>
<path transform="translate(1813,688)" d="m0 0v3l-5 4-9 3-11-1-6-3-3-3 1-2 5 4 6 2h10l10-5z" fill="#7BB1E1"/>
<path transform="translate(1890,531)" d="m0 0 2 1-12 11-9 10-6 9-1-2 9-13 5-6 8-7z" fill="#7BB1E1"/>
<path transform="translate(667,690)" d="m0 0v3l-7 4-4 1h-8l-6-2-4-3 1-2 8 4h10z" fill="#7BB1E1"/>
<path transform="translate(1052,923)" d="m0 0 5 2 11 8 10 13 1 4-4-4-7-9-7-7-9-6z" fill="#7BB1E1"/>
<path transform="translate(1648,532)" d="m0 0 2 1-19 19v-3l11-12z" fill="#A4C9E9"/>
<path transform="translate(1468,530)" d="m0 0 2 1-19 19v-3l9-10z" fill="#9FC6E8"/>
<path transform="translate(1497,555)" d="m0 0 2 1-13 12-7 11-1-3 6-9 5-5z" fill="#7BB1E1"/>
<path transform="translate(1569,647)" d="m0 0 5 1 6 8 2 5v9h-1l-2-11-6-8z" fill="#7BB1E1"/>
</svg>
